<svg id="visual" viewBox="0 0 960 540"  xmlns="http://www.w3.org/2000/svg" xmlns:xlink="http://www.w3.org/1999/xlink" version="1.1"><path d="M0 497L12.3 496.7C24.7 496.3 49.3 495.7 74 492.3C98.7 489 123.3 483 148 476.8C172.7 470.7 197.3 464.3 221.8 471C246.3 477.7 270.7 497.3 295.2 505.3C319.7 513.3 344.3 509.7 369 507.3C393.7 505 418.3 504 443 495.2C467.7 486.3 492.3 469.7 517 471.2C541.7 472.7 566.3 492.3 591 501.5C615.7 510.7 640.3 509.3 664.8 508C689.3 506.7 713.7 505.3 738.2 501.2C762.7 497 787.3 490 812 490.7C836.7 491.3 861.3 499.7 886 496.3C910.7 493 935.3 478 947.7 470.5L960 463L960 541L947.7 541C935.3 541 910.7 541 886 541C861.3 541 836.7 541 812 541C787.3 541 762.7 541 738.2 541C713.7 541 689.3 541 664.8 541C640.3 541 615.7 541 591 541C566.3 541 541.7 541 517 541C492.3 541 467.7 541 443 541C418.3 541 393.7 541 369 541C344.3 541 319.7 541 295.2 541C270.7 541 246.3 541 221.8 541C197.3 541 172.7 541 148 541C123.3 541 98.7 541 74 541C49.3 541 24.7 541 12.3 541L0 541Z" fill="#6600FF" stroke-linecap="round" stroke-linejoin="miter"></path></svg>
