<?xml version="1.0" encoding="iso-8859-1"?>
<!-- Uploaded to: SVG Repo, www.svgrepo.com, Generator: SVG Repo Mixer Tools -->
<svg xmlns="http://www.w3.org/2000/svg" xmlns:xlink="http://www.w3.org/1999/xlink" version="1.1" id="Capa_1"  viewBox="0 0 434.71 434.71" xml:space="preserve" >
<g>
	<g>
		
			<line style="fill:none;stroke:#000000;stroke-width:15;stroke-linecap:round;stroke-linejoin:round;stroke-miterlimit:10;" x1="261.207" y1="290.898" x2="328.358" y2="340.123"/>
	</g>
	<polygon style="fill:#FFEFCA;" points="79.73,234.613 354.87,234.613 354.87,126.5 354.87,19.24 79.73,19.24  "/>
	<g>
		<path style="fill:#FFDFA1;" d="M303.715,71.294H128.797c-4.143,0-7.5-3.357-7.5-7.5s3.357-7.5,7.5-7.5h174.918    c4.143,0,7.5,3.357,7.5,7.5S307.858,71.294,303.715,71.294z"/>
	</g>
	<g>
		<path style="fill:#FFDFA1;" d="M303.715,117.499H128.797c-4.143,0-7.5-3.357-7.5-7.5s3.357-7.5,7.5-7.5h174.918    c4.143,0,7.5,3.357,7.5,7.5S307.858,117.499,303.715,117.499z"/>
	</g>
	<g>
		<rect x="0.152" y="173.787" style="fill:#D3E8F1;" />
		<path style="fill:#BED8E4;" d="M261.918,288.805L434.71,415.47H0.152c0-2.912,171.502-120.842,171.502-120.842l30.126-18.834    L261.918,288.805z"/>
	</g>
	<polyline style="fill:#BED8E4;" points="413.836,173.787 434.71,173.787 434.71,415.47 414.906,415.47  "/>
	<polygon style="fill:#B1C6D3;" points="216.229,335.56 216.597,335.791 277.416,299.624 246.2,277.139 219.943,275.74  "/>
	<polygon style="fill:#BED8E4;" points="277.416,299.624 427.837,199.23 427.837,176.965 249.372,275.618 256.908,285.209  "/>
	<path style="fill:#B1C6D3;" d="M187.483,281.632c17.953,16.619,30.718,28.741,30.718,29.61c0,4.111-1.604,24.549-1.604,24.549   l-54.656-34.547"/>
	<path style="fill:#BED8E4;" d="M161.94,301.245L0,198.888v-25.101l73.304,3.863c0,0,71.647,64.61,114.178,103.982"/>
	<polygon style="fill:#EBF9FE;" points="0.152,173.787 217.431,315.011 434.572,173.888  "/>
</g>















</svg>
