<svg id="visual" viewBox="0 0 900 600" xmlns="http://www.w3.org/2000/svg" xmlns:xlink="http://www.w3.org/1999/xlink" version="1.1"><path d="M0 511L16.7 514.2C33.3 517.3 66.7 523.7 100 523.3C133.3 523 166.7 516 200 515.5C233.3 515 266.7 521 300 515.5C333.3 510 366.7 493 400 484.7C433.3 476.3 466.7 476.7 500 486C533.3 495.3 566.7 513.7 600 514.5C633.3 515.3 666.7 498.7 700 500.5C733.3 502.3 766.7 522.7 800 532.3C833.3 542 866.7 541 883.3 540.5L900 540L900 601L883.3 601C866.7 601 833.3 601 800 601C766.7 601 733.3 601 700 601C666.7 601 633.3 601 600 601C566.7 601 533.3 601 500 601C466.7 601 433.3 601 400 601C366.7 601 333.3 601 300 601C266.7 601 233.3 601 200 601C166.7 601 133.3 601 100 601C66.7 601 33.3 601 16.7 601L0 601Z" fill="#D92751" stroke-linecap="round" stroke-linejoin="miter"></path></svg>
