<svg id="visual" viewBox="0 0 900 600" xmlns="http://www.w3.org/2000/svg" xmlns:xlink="http://www.w3.org/1999/xlink" version="1.1"><path d="M0 507L8.8 510.5C17.7 514 35.3 521 53 520.7C70.7 520.3 88.3 512.7 106 507.2C123.7 501.7 141.3 498.3 159 503.8C176.7 509.3 194.3 523.7 212 524C229.7 524.3 247.3 510.7 265 506.5C282.7 502.3 300.3 507.7 318 511.7C335.7 515.7 353.3 518.3 371 523.3C388.7 528.3 406.3 535.7 423.8 537.3C441.3 539 458.7 535 476.2 532.7C493.7 530.3 511.3 529.7 529 524C546.7 518.3 564.3 507.7 582 499.3C599.7 491 617.3 485 635 491.3C652.7 497.7 670.3 516.3 688 518.5C705.7 520.7 723.3 506.3 741 501.5C758.7 496.7 776.3 501.3 794 509.5C811.7 517.7 829.3 529.3 847 532.2C864.7 535 882.3 529 891.2 526L900 523L900 601L891.2 601C882.3 601 864.7 601 847 601C829.3 601 811.7 601 794 601C776.3 601 758.7 601 741 601C723.3 601 705.7 601 688 601C670.3 601 652.7 601 635 601C617.3 601 599.7 601 582 601C564.3 601 546.7 601 529 601C511.3 601 493.7 601 476.2 601C458.7 601 441.3 601 423.8 601C406.3 601 388.7 601 371 601C353.3 601 335.7 601 318 601C300.3 601 282.7 601 265 601C247.3 601 229.7 601 212 601C194.3 601 176.7 601 159 601C141.3 601 123.7 601 106 601C88.3 601 70.7 601 53 601C35.3 601 17.7 601 8.8 601L0 601Z" fill="#C91962" stroke-linecap="round" stroke-linejoin="miter"></path></svg>
